<svg width="24" height="24" viewBox="0 0 24 24" fill="none" xmlns="http://www.w3.org/2000/svg">
<path d="M14.0003 4V7C14.0003 7.55229 14.448 8 15.0003 8H18.0003M8.50031 8H10.5003M8.50031 11H14.5003M8.50031 14H14.5003M16.5003 5.5C16.0553 5.10179 15.5934 4.62948 15.3019 4.32273C15.1078 4.11861 14.8398 4 14.5582 4H7.00008C5.89551 4 5.00008 4.89542 5.00008 5.99999L5 18C4.99999 19.1045 5.89542 20 6.99999 20L16 20C17.1046 20 18 19.1046 18 18L18.0003 7.3982C18.0003 7.1425 17.9028 6.8967 17.7253 6.71261C17.3971 6.37221 16.8491 5.8121 16.5003 5.5Z" stroke="#000" stroke-width="1.5" stroke-linecap="round" stroke-linejoin="round"/>
</svg>
