<svg width="25" height="24" viewBox="0 0 25 24" fill="none" xmlns="http://www.w3.org/2000/svg">
<path fill-rule="evenodd" clip-rule="evenodd" d="M7.69406 4.8317C8.09601 4.10118 8.53328 3.61283 9.18213 3.35457C10.3711 2.88179 14.6295 2.88179 15.8176 3.35467C16.4661 3.61278 16.9035 4.10105 17.3058 4.83142L17.758 5.69857C17.7684 5.71576 17.7779 5.73086 17.7864 5.74387L17.8248 5.79637C18.0308 6.02088 18.3757 6.1565 18.6032 6.1565C20.7553 6.1565 22.5002 7.90109 22.5002 10.0525V15.8475C22.5002 18.5917 20.2745 20.8175 17.5302 20.8175H7.47024C4.72535 20.8175 2.50024 18.592 2.50024 15.8475V10.0525C2.50024 7.90109 4.24522 6.1565 6.39724 6.1565C6.62402 6.1565 6.96932 6.02068 7.17568 5.79637C7.17981 5.79188 7.18519 5.78519 7.19169 5.77634L7.24312 5.69745L7.69406 4.8317ZM15.9919 5.55508C15.7419 5.10124 15.516 4.84909 15.2629 4.74833L15.1436 4.70867C14.1144 4.41778 10.5347 4.431 9.7366 4.74833C9.48358 4.84904 9.25793 5.10105 9.00826 5.5548L8.6234 6.2989L8.52868 6.47033C8.4496 6.60186 8.37051 6.71289 8.28019 6.81129C7.77373 7.36179 7.02449 7.6565 6.39724 7.6565L6.23315 7.66203C4.98599 7.74636 4.00024 8.78472 4.00024 10.0525V15.8475C4.00024 17.7637 5.55383 19.3175 7.47024 19.3175H17.5302C19.446 19.3175 21.0002 17.7633 21.0002 15.8475V10.0525C21.0002 8.7296 19.9269 7.6565 18.6032 7.6565L18.4291 7.64922C17.8406 7.60079 17.1795 7.31166 16.7197 6.81063C16.6306 6.71353 16.5519 6.60329 16.4733 6.47287C16.462 6.45416 16.448 6.42953 16.4319 6.40039L16.3158 6.18264L15.9919 5.55508Z" fill="#000"/>
<path d="M18.0046 8.5C18.5569 8.5 19.0046 8.94772 19.0046 9.5C19.0046 10.0128 18.6186 10.4355 18.1212 10.4933L18.0046 10.5C17.4433 10.5 16.9956 10.0523 16.9956 9.5C16.9956 8.98716 17.3816 8.56449 17.879 8.50673L18.0046 8.5Z" fill="#000"/>
<path fill-rule="evenodd" clip-rule="evenodd" d="M8.57104 13.1282C8.57104 10.958 10.3298 9.19922 12.5 9.19922C14.6703 9.19922 16.429 10.958 16.429 13.1282C16.429 15.2984 14.6703 17.0572 12.5 17.0572C10.3298 17.0572 8.57104 15.2984 8.57104 13.1282ZM14.929 13.1282C14.929 11.7864 13.8418 10.6992 12.5 10.6992C11.1583 10.6992 10.071 11.7864 10.071 13.1282C10.071 14.47 11.1583 15.5572 12.5 15.5572C13.8418 15.5572 14.929 14.47 14.929 13.1282Z" fill="#000"/>
</svg>
